<?xml version="1.0" encoding="UTF-8"?>
<svg id="Layer_2" xmlns="http://www.w3.org/2000/svg" version="1.1" viewBox="0 0 390.4 250">
  <!-- Generator: Adobe Illustrator 29.3.1, SVG Export Plug-In . SVG Version: 2.1.0 Build 151)  -->
  <defs>
    <style>
      .st0 {
        stroke-linejoin: round;
      }

      .st0, .st1, .st2, .st3 {
        fill: none;
        stroke: #5b2487;
      }

      .st0, .st1, .st3 {
        stroke-width: 2px;
      }

      .st0, .st2, .st3 {
        stroke-linecap: round;
      }

      .st1, .st2, .st3 {
        stroke-miterlimit: 10;
      }

      .st2 {
        stroke-width: 1.8px;
      }

      .st4 {
        fill: #afafd5;
      }

      .st5 {
        fill: #5b2487;
      }
    </style>
  </defs>
  <path class="st4" d="M251.4,154.7c-2-2-5.3-2-7.3,0l-13.5,13.6,46.1,46.1h34.4l-59.7-59.7Z"/>
  <polyline class="st1" points="275.2 71.3 193.8 71.3 193.8 123.2"/>
  <line class="st1" x1="301.6" y1="123.2" x2="301.6" y2="91.4"/>
  <line class="st3" x1="205.8" y1="85.2" x2="229.8" y2="85.2"/>
  <line class="st3" x1="205.8" y1="99.9" x2="220.3" y2="99.9"/>
  <line class="st3" x1="205.8" y1="92.5" x2="234.2" y2="92.5"/>
  <path class="st4" d="M157.5,58.6h-52c22.8,8.3,39,28.2,39.5,51.5h12.5c7.3,0,13.2-5.9,13.2-13.2v-25c0-7.3-5.9-13.2-13.2-13.2Z"/>
  <path class="st2" d="M103.8,105.5h-32.3c-7.3,0-13.2-5.9-13.2-13.2v-25c0-7.3,5.9-13.2,13.2-13.2h20.1M111.9,105.5h8.7l20.5,18-2.6-18h14.3c7.3,0,13.2-5.9,13.2-13.2v-25c0-7.3-5.9-13.2-13.2-13.2h-51.5"/>
  <line class="st2" x1="130" y1="75.3" x2="137.7" y2="75.3"/>
  <line class="st2" x1="116" y1="75.3" x2="124.6" y2="75.3"/>
  <line class="st2" x1="85.3" y1="75.3" x2="110.6" y2="75.3"/>
  <line class="st2" x1="123.7" y1="83.8" x2="137.7" y2="83.8"/>
  <line class="st2" x1="109.4" y1="83.8" x2="118.3" y2="83.8"/>
  <line class="st2" x1="85.3" y1="83.8" x2="104" y2="83.8"/>
  <path class="st4" d="M57.1,129.4h40.5c-17.8,6.5-30.4,22-30.8,40.2h-9.7c-5.7,0-10.3-4.6-10.3-10.3v-19.5c0-5.7,4.6-10.3,10.3-10.3Z"/>
  <path class="st2" d="M108.7,125.7h15.7c5.7,0,10.3,4.6,10.3,10.3v19.5c0,5.7-4.6,10.3-10.3,10.3h-25.2M101,125.7h-40.2c-5.7,0-10.3,4.6-10.3,10.3v19.5c0,5.7,4.6,10.3,10.3,10.3h11.2s-2,14-2,14l16-14h6.8"/>
  <line class="st2" x1="78.7" y1="142.3" x2="72.7" y2="142.3"/>
  <line class="st2" x1="89.6" y1="142.3" x2="82.9" y2="142.3"/>
  <line class="st2" x1="113.5" y1="142.3" x2="93.8" y2="142.3"/>
  <line class="st2" x1="83.6" y1="148.9" x2="72.7" y2="148.9"/>
  <line class="st2" x1="94.8" y1="148.9" x2="87.8" y2="148.9"/>
  <line class="st2" x1="113.5" y1="148.9" x2="99" y2="148.9"/>
  <line class="st0" x1="318.4" y1="49.3" x2="322.1" y2="35.6"/>
  <path class="st0" d="M283.3,123.1c1.2,2.1.5,4.7-1.6,5.9-2.1,1.2-4.7.5-5.9-1.6l-10.8-18.9,7.6-4.3,10.8,18.9Z"/>
  <path class="st0" d="M272.5,104.2c1.6-.9,4-2.4,7.7-4.1l2,3.5c1.2,2.1.5,4.7-1.6,5.9l-3.8,2.2-4.4-7.5Z"/>
  <line class="st0" x1="324.2" y1="59.4" x2="340.3" y2="50.2"/>
  <line class="st0" x1="329.9" y1="69.5" x2="343.6" y2="73.2"/>
  <g>
    <polyline class="st1" points="181.8 187.3 181.8 207.3 247.7 207.3 313.6 207.3 313.6 111.2 301.6 101.6"/>
    <polyline class="st1" points="193.8 101.6 181.8 111.2 181.8 141"/>
    <path class="st1" d="M263.9,71.3l-12.8-10.3c-2-1.6-4.9-1.6-6.9,0l-12.8,10.3"/>
    <path class="st1" d="M181.8,207.3l62.8-62.8c1.6-1.6,4.3-1.6,5.9,0l63,63"/>
    <line class="st1" x1="181.8" y1="111.2" x2="229.8" y2="159.3"/>
    <line class="st1" x1="313.6" y1="111.2" x2="265.5" y2="159.4"/>
  </g>
  <line class="st3" x1="205.8" y1="107.2" x2="231.5" y2="107.2"/>
  <line class="st3" x1="205.8" y1="123.4" x2="260.1" y2="123.4"/>
  <line class="st3" x1="208.6" y1="138" x2="260.7" y2="138"/>
  <line class="st3" x1="205.8" y1="130.7" x2="242.9" y2="130.7"/>
  <line class="st3" x1="215.9" y1="145.3" x2="231.5" y2="145.3"/>
  <rect id="Rectangle_1789" class="st5" x="171.9" y="161.4" width="5" height="15"/>
  <circle id="Ellipse_178" class="st5" cx="174.4" cy="154.9" r="3.1"/>
  <path class="st4" d="M276.6,76.6h0s-26.3,15.4-26.3,15.4c-2.1,1.2-2.8,3.8-1.6,5.9l7,12.3c-1.2-2.1-.5-4.7,1.6-5.9l26.3-15.4h0c12.8-8.6,23.4-20,31.1-33.4l-7-12.3c-7.7,13.4-18.3,24.8-31.1,33.4Z"/>
  <path class="st0" d="M256.8,112.9c-2.1,1.2-4.7.5-5.9-1.6l-8.7-15.2c-1.2-2.1-.5-4.7,1.6-5.9l26.3-15.4,13.2,23.2c-2.6,1.5-24,13.4-26.6,14.9Z"/>
  <path id="Path_6761" class="st4" d="M192.7,187.5l-6.9-8.3c7.8-6.5,8.8-18.1,2.3-25.8-6.5-7.8-18.1-8.8-25.8-2.3h0l-6.9-8.3c12.3-10.3,30.7-8.7,41,3.6,10.3,12.3,8.7,30.7-3.6,41h0Z"/>
  <path id="Path_6762" class="st1" d="M174.4,188.4c-13.4,0-24.3-10.9-24.3-24.3s10.9-24.3,24.3-24.3,24.3,10.9,24.3,24.3c0,13.4-10.9,24.3-24.3,24.3Z"/>
  <path class="st0" d="M283.4,98l-13.2-23.2c12.8-8.6,23.4-20,31.1-33.4l26.7,46.7c-15.5-.2-30.6,3.1-44.6,9.8Z"/>
</svg>