<?xml version="1.0" encoding="UTF-8"?>
<svg id="Layer_2" xmlns="http://www.w3.org/2000/svg" version="1.1" viewBox="0 0 250 250">
  <!-- Generator: Adobe Illustrator 29.3.0, SVG Export Plug-In . SVG Version: 2.1.0 Build 146)  -->
  <defs>
    <style>
      .st0 {
        stroke-linejoin: round;
      }

      .st0, .st1, .st2 {
        fill: none;
        stroke: #5b2487;
        stroke-width: 2.5px;
      }

      .st0, .st2 {
        stroke-linecap: round;
      }

      .st3 {
        fill: #fff;
      }

      .st1, .st2 {
        stroke-miterlimit: 10;
      }

      .st4 {
        fill: #afafd5;
      }

      .st5 {
        fill: #5b2487;
      }
    </style>
  </defs>
  <g>
    <polyline class="st3" points="58.4 86.1 43.3 98.3 43.3 218.9 126.1 218.9 208.8 218.9 208.8 98.3 193.8 86.1"/>
    <path class="st3" d="M146.5,48.1l-16-12.9c-2.5-2-6.1-2-8.7,0l-16,12.9"/>
    <path class="st3" d="M43.3,218.9l78.9-78.9c2-2,5.3-2,7.4,0l79.1,79.1"/>
    <line class="st3" x1="43.3" y1="98.3" x2="103.6" y2="158.6"/>
    <line class="st3" x1="208.8" y1="98.3" x2="148.4" y2="158.7"/>
  </g>
  <path class="st4" d="M130.7,152.8c-2.5-2.5-6.7-2.5-9.2,0l-17,17.1,57.9,57.9h43.2l-74.9-74.9Z"/>
  <polyline class="st1" points="160.6 48.1 58.4 48.1 58.4 113.3"/>
  <line class="st1" x1="193.8" y1="113.3" x2="193.8" y2="73.3"/>
  <line class="st2" x1="73.5" y1="65.6" x2="103.6" y2="65.6"/>
  <line class="st2" x1="73.5" y1="84" x2="91.6" y2="84"/>
  <line class="st2" x1="73.5" y1="74.8" x2="109.2" y2="74.8"/>
  <line class="st0" x1="214.8" y1="20.5" x2="219.5" y2="3.3"/>
  <path class="st0" d="M170.8,113.2c1.5,2.6.6,5.9-2,7.4-2.6,1.5-5.9.6-7.4-2l-13.6-23.7,9.5-5.4,13.5,23.8Z"/>
  <path class="st0" d="M157.3,89.4c2-1.1,5.1-3,9.7-5.1l2.5,4.4c1.5,2.6.6,5.9-2,7.4l-4.7,2.7-5.5-9.4Z"/>
  <line class="st0" x1="222.1" y1="33.2" x2="242.3" y2="21.6"/>
  <line class="st0" x1="229.3" y1="45.8" x2="246.5" y2="50.5"/>
  <g>
    <polyline class="st1" points="43.3 193.8 43.3 218.9 126.1 218.9 208.8 218.9 208.8 98.3 193.8 86.1"/>
    <polyline class="st1" points="58.4 86.1 43.3 98.3 43.3 135.6"/>
    <path class="st1" d="M146.5,48.1l-16-12.9c-2.5-2-6.1-2-8.7,0l-16,12.9"/>
    <path class="st1" d="M43.3,218.9l78.9-78.9c2-2,5.3-2,7.4,0l79.1,79.1"/>
    <line class="st1" x1="43.3" y1="98.3" x2="103.6" y2="158.6"/>
    <line class="st1" x1="208.8" y1="98.3" x2="148.4" y2="158.7"/>
  </g>
  <line class="st2" x1="73.5" y1="93.2" x2="105.7" y2="93.2"/>
  <line class="st2" x1="73.5" y1="113.5" x2="141.6" y2="113.5"/>
  <line class="st2" x1="77" y1="131.9" x2="142.4" y2="131.9"/>
  <line class="st2" x1="73.5" y1="122.7" x2="120" y2="122.7"/>
  <line class="st2" x1="86.1" y1="141.1" x2="105.7" y2="141.1"/>
  <rect id="Rectangle_1789" class="st5" x="30.9" y="161.3" width="6.3" height="18.8"/>
  <circle id="Ellipse_178" class="st5" cx="34.1" cy="153.1" r="3.9"/>
  <path class="st4" d="M162.3,54.8h0s-33,19.3-33,19.3c-2.6,1.5-3.5,4.8-2,7.4l8.8,15.4c-1.5-2.6-.6-5.9,2-7.4l33-19.3h0c16.1-10.8,29.4-25.1,39.1-41.9l-8.8-15.4c-9.6,16.8-23,31.1-39.1,41.9Z"/>
  <path class="st0" d="M137.5,100.4c-2.6,1.5-5.9.6-7.4-2l-10.9-19c-1.5-2.6-.6-5.9,2-7.4l33.1-19.3,16.6,29.1c-3.3,1.9-30.1,16.9-33.4,18.7Z"/>
  <path id="Path_6761" class="st4" d="M57.1,194l-8.7-10.4c9.7-8.2,11-22.7,2.9-32.4-8.2-9.7-22.7-11-32.4-2.9h0l-8.7-10.4c15.5-13,38.6-10.9,51.5,4.6,13,15.5,10.9,38.6-4.6,51.5h0Z"/>
  <path id="Path_6762" class="st1" d="M34.1,195.2c-16.9,0-30.5-13.7-30.5-30.5s13.7-30.5,30.5-30.5,30.5,13.7,30.5,30.5c0,16.8-13.7,30.5-30.5,30.5Z"/>
  <path class="st0" d="M170.9,81.7l-16.6-29.1c16.1-10.8,29.4-25.1,39.1-41.9l33.5,58.7c-19.4-.3-38.4,3.9-56,12.3Z"/>
</svg>